<svg xmlns="http://www.w3.org/2000/svg" xmlns:xlink="http://www.w3.org/1999/xlink" width="720" zoomAndPan="magnify" viewBox="0 0 540 540.000001" height="720" preserveAspectRatio="xMidYMid meet" version="1.0"><defs><clipPath id="c81840afc3"><path d="M 220 218.296875 L 341 218.296875 L 341 514 L 220 514 Z M 220 218.296875 " clip-rule="nonzero"/></clipPath><clipPath id="14ef0b2284"><path d="M 0.5 264 L 539.5 264 L 539.5 538.703125 L 0.5 538.703125 Z M 0.5 264 " clip-rule="nonzero"/></clipPath></defs><path fill="#6a8037" d="M 225.796875 532.925781 C 206.257812 502.589844 180.703125 467.816406 147.695312 432.078125 C 112.625 394.109375 77.894531 364.53125 47.703125 341.957031 C 63.582031 343.894531 80.304688 347.402344 97.484375 353.117188 C 201.390625 387.683594 254.484375 480.625 273.433594 518.765625 C 257.554688 523.488281 241.675781 528.207031 225.796875 532.925781 Z M 225.796875 532.925781 " fill-opacity="1" fill-rule="nonzero"/><g clip-path="url(#c81840afc3)"><path fill="#6a8037" d="M 228.644531 499.925781 C 231.800781 445.925781 232.429688 386.777344 228.890625 323.289062 C 227.078125 290.773438 224.3125 259.628906 220.84375 229.953125 C 232.421875 246.261719 245.734375 268.210938 256.902344 295.738281 C 266.746094 320.007812 272.3125 342.195312 275.5625 360.304688 C 278.609375 338.527344 284.546875 310.914062 296.480469 280.484375 C 306.640625 254.578125 329.792969 234.910156 340.578125 218.363281 C 336.285156 317.28125 320.730469 414.589844 316.4375 513.507812 L 228.648438 499.921875 Z M 228.644531 499.925781 " fill-opacity="1" fill-rule="nonzero"/></g><path fill="#6a8037" d="M 285.128906 518.980469 C 295.84375 495.300781 321.515625 447.074219 374.925781 407.296875 C 433.648438 363.558594 493.210938 354.390625 519.117188 351.9375 C 481.914062 376.261719 441.304688 405.78125 399.386719 441.410156 C 361.113281 473.949219 328.105469 506.171875 299.933594 536.359375 C 298.644531 534 286.414062 521.339844 285.128906 518.980469 Z M 285.128906 518.980469 " fill-opacity="1" fill-rule="nonzero"/><g clip-path="url(#14ef0b2284)"><path fill="#8ea158" d="M 330.082031 538.933594 L 211.207031 538.933594 C 194.628906 524.449219 172.1875 507.90625 143.402344 493.875 C 85.621094 465.707031 31.859375 462.074219 0.5 462.546875 C 16.09375 451.503906 47.511719 432.839844 89.761719 431.21875 C 184.492188 427.59375 242.457031 513.171875 246.398438 519.195312 C 226.867188 485.382812 206.835938 446.589844 188.035156 402.898438 C 166.617188 353.136719 150.851562 306.457031 139.113281 264.714844 C 164.152344 287.152344 197.292969 321.839844 226.460938 370.828125 C 258.621094 424.835938 273.433594 475.207031 280.730469 509.753906 C 281.679688 487.8125 287.03125 431.515625 327.078125 375.859375 C 368.160156 318.765625 421.605469 295.898438 442.085938 288.316406 C 396.167969 364.703125 350.25 441.089844 304.332031 517.476562 C 314.015625 505.253906 348.105469 465.320312 408.613281 451.390625 C 474.710938 436.167969 526.722656 462.480469 539.5 469.414062 C 513.335938 469.375 475.410156 472.253906 432.214844 486.148438 C 385.964844 501.03125 351.734375 522.726562 330.082031 538.933594 Z M 330.082031 538.933594 " fill-opacity="1" fill-rule="nonzero"/></g></svg>