<svg xmlns="http://www.w3.org/2000/svg" xmlns:xlink="http://www.w3.org/1999/xlink" width="720" zoomAndPan="magnify" viewBox="0 0 540 540.000001" height="720" preserveAspectRatio="xMidYMid meet" version="1.0"><defs><clipPath id="8bd2edfd72"><path d="M 0.5 196 L 531 196 L 531 504 L 0.5 504 Z M 0.5 196 " clip-rule="nonzero"/></clipPath><clipPath id="fcb5826160"><path d="M 0.5 228 L 507 228 L 507 539 L 0.5 539 Z M 0.5 228 " clip-rule="nonzero"/></clipPath><clipPath id="cdc734dc76"><path d="M 428 157 L 539.5 157 L 539.5 208 L 428 208 Z M 428 157 " clip-rule="nonzero"/></clipPath><clipPath id="ec893d5233"><path d="M 458 192 L 539.5 192 L 539.5 259 L 458 259 Z M 458 192 " clip-rule="nonzero"/></clipPath><clipPath id="af63652453"><path d="M 316 227 L 539.5 227 L 539.5 539 L 316 539 Z M 316 227 " clip-rule="nonzero"/></clipPath><clipPath id="c73260f90b"><path d="M 0.5 226 L 228 226 L 228 539 L 0.5 539 Z M 0.5 226 " clip-rule="nonzero"/></clipPath><clipPath id="5a22440a68"><path d="M 0.5 0 L 16 0 L 16 6 L 0.5 6 Z M 0.5 0 " clip-rule="nonzero"/></clipPath></defs><g clip-path="url(#8bd2edfd72)"><path fill="#a4cf78" d="M 0.5 279.429688 C 3.414062 279.875 15.617188 274.332031 19.164062 274.105469 C 22.714844 273.882812 28.039062 266.121094 28.039062 266.121094 L 28.039062 261.910156 C 28.039062 261.910156 42.902344 251.039062 44.898438 248.378906 C 46.894531 245.71875 59.015625 242.539062 59.015625 242.539062 C 59.015625 242.539062 63.75 230.046875 66.746094 228.347656 C 66.410156 223.535156 73.734375 216.4375 75.730469 213.777344 C 77.726562 208.007812 77.816406 205.257812 79.277344 202.6875 C 83.378906 195.480469 93.917969 194.484375 97.246094 201.136719 C 98.378906 203.398438 100.539062 207.789062 102.105469 209.339844 C 103.671875 210.894531 113.214844 226.5 114.324219 228.347656 C 115.429688 230.191406 120.242188 226.765625 123.050781 226.484375 C 125.863281 226.203125 135.175781 232.414062 136.953125 235.960938 C 138.726562 239.511719 141.164062 236.65625 143.160156 239.859375 C 145.15625 243.0625 148.433594 255.707031 153.332031 258.585938 C 158.226562 261.464844 163.785156 267.269531 166.226562 269.46875 C 168.667969 271.671875 174.210938 269.453125 178.648438 275.664062 C 183.085938 281.871094 183.53125 284.757812 187.742188 285.644531 C 191.953125 286.535156 192.84375 288.972656 196.835938 288.75 C 200.828125 288.523438 204.375 285.199219 207.707031 289.855469 C 211.035156 294.511719 220.792969 292.515625 225.671875 300.28125 C 230.554688 308.046875 235.058594 315.882812 237.429688 316.699219 C 239.800781 317.511719 247.855469 320.605469 252.066406 323.085938 C 256.28125 325.566406 264.710938 324.015625 266.929688 325.125 C 269.152344 326.238281 272.03125 335.550781 276.25 335.773438 C 280.464844 335.992188 291.460938 336.851562 298.652344 340.207031 C 301.980469 341.761719 309.523438 335.109375 314.402344 336.878906 C 319.285156 338.652344 326.824219 344.644531 331.925781 343.976562 C 337.027344 343.308594 348.675781 334.773438 357.65625 335.65625 C 366.640625 336.539062 368.855469 328.335938 376.402344 328.558594 C 383.949219 328.785156 388.824219 331.335938 391.039062 328.671875 C 393.257812 326.003906 399.804688 321.238281 412.664062 327.453125 C 416.605469 329.613281 433.183594 323.957031 441.613281 327.234375 C 450.042969 330.507812 465.867188 326.765625 473 325.238281 C 476.101562 324.574219 480.984375 327.675781 483.535156 326.570312 C 486.085938 325.460938 489.863281 321.742188 499.675781 324.765625 C 509.488281 327.792969 530.449219 321.804688 530.449219 321.804688 L 530.449219 503.242188 L 0.5 503.242188 Z M 0.5 279.429688 " fill-opacity="1" fill-rule="nonzero"/></g><g clip-path="url(#fcb5826160)"><path fill="#539161" d="M 469.589844 352.113281 C 465.746094 351.222656 455.984375 353.886719 455.984375 353.886719 C 457.460938 347.972656 458.644531 342.945312 458.644531 342.945312 L 450.066406 353.292969 C 449.472656 347.378906 452.433594 326.972656 452.433594 326.972656 C 450.359375 331.410156 446.222656 349.152344 446.222656 349.152344 C 444.746094 345.308594 437.945312 333.183594 437.945312 333.183594 C 437.945312 333.183594 439.71875 342.945312 439.125 345.898438 C 438.53125 348.851562 427.296875 335.84375 424.933594 335.253906 C 422.566406 334.664062 418.722656 336.730469 418.722656 330.523438 C 418.722656 324.3125 406.894531 279.0625 409.554688 275.808594 C 412.214844 272.554688 413.84375 269.597656 414.4375 268.117188 C 417.246094 269.464844 422.867188 268.410156 424.492188 267.378906 C 424.34375 265.308594 421.832031 263.535156 421.832031 263.535156 C 424.347656 265.3125 428.929688 263.242188 431.890625 262.941406 C 434.851562 262.640625 438.542969 265.902344 441.796875 262.941406 C 445.050781 259.980469 449.339844 263.976562 449.933594 261.609375 C 450.527344 259.242188 447.121094 257.324219 447.121094 257.324219 C 450.671875 257.617188 453.332031 256.582031 452.445312 254.21875 C 451.5625 251.851562 430.855469 251.851562 430.414062 250.519531 C 429.96875 249.1875 435.4375 247.414062 433.8125 245.050781 C 432.183594 242.683594 427.453125 243.421875 427.453125 242.535156 C 427.453125 241.644531 427.601562 237.804688 424.492188 236.765625 C 421.390625 235.730469 414.144531 237.796875 413.40625 236.765625 C 412.664062 235.730469 408.230469 227.746094 406.898438 228.78125 C 405.5625 229.8125 401.871094 233.066406 401.871094 233.066406 C 401.871094 233.066406 398.027344 226.820312 395.664062 228.683594 C 393.296875 230.550781 392.410156 235.28125 391.820312 235.726562 C 391.226562 236.171875 383.984375 235.28125 383.09375 237.203125 C 382.207031 239.125 367.273438 240.457031 367.125 244.300781 C 366.976562 248.144531 376.292969 246.960938 375.554688 248.144531 C 374.816406 249.328125 370.96875 247.40625 370.671875 249.175781 C 370.378906 250.953125 364.757812 253.613281 365.203125 255.683594 C 365.648438 257.757812 368.011719 258.9375 368.011719 258.9375 C 364.316406 259.089844 360.917969 260.714844 359.433594 262.933594 C 357.957031 265.148438 344.058594 267.21875 341.394531 274.464844 C 345.234375 279.640625 353.816406 276.242188 353.816406 276.242188 C 353.816406 276.242188 351.449219 280.679688 353.371094 281.417969 C 355.292969 282.15625 364.316406 282.304688 367.863281 276.535156 C 369.492188 279.789062 372.152344 278.015625 375.40625 276.980469 C 377.328125 279.347656 376.585938 284.078125 376.585938 284.078125 C 378.804688 284.964844 383.835938 282.894531 385.605469 280.085938 C 388.566406 281.5625 389.894531 281.863281 393.148438 281.710938 C 396.402344 281.5625 398.6875 283.488281 402.972656 280.53125 C 403.566406 284.671875 404.535156 296.792969 404.535156 296.792969 C 404.535156 296.792969 377.421875 298.417969 373.1875 300.046875 C 360.917969 304.78125 346.792969 299.605469 341.910156 300.640625 C 344.796875 299.050781 351.339844 293.175781 349.898438 291.507812 C 348.578125 289.988281 336.8125 296.945312 336.8125 296.945312 C 336.8125 296.945312 335.8125 289.847656 333.371094 290.402344 C 331.242188 290.886719 330.933594 296.722656 330.933594 296.722656 C 330.933594 296.722656 325.722656 290.402344 323.726562 290.734375 C 322.25 290.980469 324.167969 297.167969 324.167969 297.167969 C 324.167969 297.167969 318.097656 295.007812 316.074219 295.671875 C 314.59375 296.160156 316.738281 299.359375 316.738281 299.359375 C 316.738281 299.359375 311.941406 298.96875 309.585938 299.28125 C 308.414062 299.433594 310.304688 302.214844 310.304688 302.214844 C 310.304688 302.214844 303.097656 303.019531 303.925781 305.179688 C 304.511719 306.695312 301.433594 306.859375 301.949219 307.96875 C 302.429688 308.992188 307.503906 309.171875 309.917969 308.28125 C 305.011719 311.441406 304.027344 314.136719 316.738281 310.695312 C 313.003906 312.691406 313.226562 319.199219 324.167969 312.171875 C 322.394531 313.722656 320.992188 317.714844 322.171875 318.011719 C 323.355469 318.304688 329.566406 315.417969 331.265625 313.796875 C 331.117188 315.199219 333.113281 314.980469 333.855469 314.390625 C 333.707031 315.574219 335.039062 317.941406 337.773438 313.503906 C 338.957031 316.757812 340.140625 317.421875 341.398438 316.3125 C 342.65625 315.207031 344.503906 308.695312 342.730469 305.519531 C 345.835938 305.886719 358.183594 308.621094 363.800781 307.808594 C 369.421875 306.996094 399.917969 300.929688 403.910156 305.8125 C 407.90625 310.695312 406.90625 327.402344 408.976562 332.132812 C 411.046875 336.863281 415.78125 347.660156 413.859375 353.722656 C 411.9375 359.789062 410.460938 365.550781 410.460938 365.550781 C 409.425781 362.742188 405.285156 361.710938 405.285156 361.710938 C 405.878906 363.042969 406.171875 367.476562 406.171875 367.476562 C 403.363281 364.816406 401.292969 364.667969 401.292969 364.667969 C 402.625 366.882812 401.292969 370.136719 401.292969 370.136719 C 399.261719 368.695312 381.847656 339.085938 373.972656 332.320312 C 378.410156 339.304688 387.28125 365.257812 390.941406 368.140625 C 383.734375 363.59375 367.203125 356.828125 367.203125 356.828125 C 368.648438 359.710938 380.070312 369.46875 380.070312 369.46875 C 375.414062 368.25 369.753906 370.46875 369.753906 370.46875 C 372.414062 372.019531 378.074219 374.351562 378.628906 377.011719 C 373.746094 380.003906 373.085938 382.378906 373.085938 382.378906 C 375.746094 382.78125 377.519531 385.441406 377.519531 385.441406 C 371.640625 385.550781 368.648438 389.988281 367.09375 389.875 C 368.871094 391.984375 371.640625 392.871094 371.640625 392.871094 C 371.640625 392.871094 368.648438 396.417969 369.203125 398.417969 C 366.871094 401.074219 361.996094 411.726562 359.4375 413.386719 C 356.890625 415.050781 347.351562 400.632812 342.359375 400.414062 C 337.371094 400.191406 334.265625 403.1875 331.046875 402.851562 C 327.832031 402.519531 321.953125 399.304688 316.738281 402.742188 C 311.527344 406.183594 311.96875 413.722656 308.972656 416.273438 C 305.976562 418.824219 303.09375 427.363281 303.429688 432.90625 C 303.761719 438.453125 307.085938 444.886719 305.425781 446.328125 C 305.085938 446.621094 304.476562 446.941406 303.699219 447.289062 C 300.761719 439.714844 291.613281 422.375 289.394531 418.195312 C 291.105469 418.074219 292.742188 418.652344 295.558594 419.929688 C 295.558594 419.929688 293.894531 415.9375 291.011719 415.273438 C 291.011719 415.273438 295.113281 414.277344 299.660156 414.609375 C 298.773438 412.722656 292.894531 410.953125 289.570312 411.171875 C 289.347656 410.066406 293.117188 409.066406 296.335938 408.179688 C 296.335938 408.179688 291.234375 406.515625 289.238281 407.515625 C 289.238281 406.40625 290.445312 401.355469 292.015625 400.527344 C 292.015625 400.527344 286.46875 402.96875 285.472656 406.851562 C 285.472656 406.851562 283.765625 399.019531 285.136719 397.421875 C 285.136719 397.421875 280.144531 402.414062 280.808594 406.960938 C 276.925781 405.40625 272.046875 409.402344 269.050781 410.953125 C 269.050781 410.953125 273.042969 408.847656 279.3125 410.953125 C 274.929688 411.0625 272.269531 415.609375 270.828125 417.832031 C 270.828125 417.832031 275.929688 415.171875 279.367188 415.054688 C 279.367188 415.054688 273.597656 422.375 275.265625 426.921875 C 275.710938 423.59375 278.703125 420.269531 281.917969 418.492188 C 280.917969 419.382812 280.808594 427.257812 281.917969 429.03125 C 281.917969 429.03125 283.25 421.824219 285.355469 419.203125 C 285.355469 419.203125 284.800781 425.480469 287.132812 427.144531 C 286.683594 424.601562 287.144531 421.5625 287.488281 419.847656 C 290.152344 425.132812 297.964844 440.746094 301.019531 448.429688 C 298.019531 449.675781 294.371094 451.269531 292.601562 453.390625 C 289.535156 453.390625 285.0625 454.792969 285.0625 454.792969 C 287.167969 455.269531 288.535156 456.269531 288.535156 456.269531 C 288.535156 456.269531 282.472656 458.117188 279.515625 460.925781 C 277.300781 458.855469 270.199219 451.683594 264.878906 450.574219 C 266.433594 453.308594 269.023438 460.035156 269.023438 460.035156 C 267.621094 459.074219 264.878906 458.929688 264.878906 458.929688 C 264.878906 458.929688 266.136719 460.554688 265.769531 461.886719 C 261.035156 462.386719 235.414062 461.886719 224.59375 458.28125 C 227.402344 450.925781 235.664062 434.40625 238.421875 428.933594 C 238.769531 430.652344 239.226562 433.691406 238.777344 436.230469 C 241.109375 434.570312 240.554688 428.289062 240.554688 428.289062 C 242.660156 430.910156 243.992188 438.117188 243.992188 438.117188 C 245.101562 436.339844 244.992188 428.46875 243.992188 427.582031 C 247.207031 429.359375 250.203125 432.683594 250.644531 436.011719 C 252.308594 431.464844 246.542969 424.144531 246.542969 424.144531 C 249.980469 424.253906 255.082031 426.917969 255.082031 426.917969 C 253.640625 424.703125 250.980469 420.152344 246.597656 420.042969 C 252.867188 417.933594 256.859375 420.042969 256.859375 420.042969 C 253.863281 418.488281 248.984375 414.496094 245.101562 416.046875 C 245.765625 411.5 240.773438 406.511719 240.773438 406.511719 C 242.148438 408.109375 240.441406 415.9375 240.441406 415.9375 C 239.441406 412.054688 233.898438 409.617188 233.898438 409.617188 C 235.464844 410.445312 236.671875 415.496094 236.671875 416.601562 C 234.675781 415.605469 229.574219 417.265625 229.574219 417.265625 C 232.789062 418.15625 236.5625 419.152344 236.34375 420.261719 C 233.011719 420.042969 227.140625 421.8125 226.25 423.699219 C 230.796875 423.363281 234.898438 424.363281 234.898438 424.363281 C 232.015625 425.027344 230.355469 429.019531 230.355469 429.019531 C 233.167969 427.742188 234.800781 427.15625 236.515625 427.28125 C 234.210938 431.621094 224.488281 450.0625 221.925781 457.152344 C 221.21875 456.761719 220.667969 456.34375 220.300781 455.898438 C 222.960938 453.535156 224.445312 451.464844 219.5625 450.722656 C 221.484375 448.804688 217.9375 448.359375 217.199219 448.359375 C 220.15625 446.289062 220.300781 443.921875 219.121094 442.445312 C 217.9375 440.96875 217.640625 435.9375 212.167969 438.453125 C 215.605469 435.902344 214.71875 432.019531 214.71875 432.019531 C 212.722656 432.464844 209.0625 429.914062 209.0625 429.914062 C 212.058594 429.132812 212.5 426.917969 210.839844 425.585938 C 209.179688 424.253906 203.632812 422.8125 204.40625 426.585938 C 205.183594 430.355469 201.632812 426.585938 201.855469 425.367188 C 202.074219 424.148438 200.96875 425.699219 200.078125 426.03125 C 199.191406 426.359375 197.417969 424.144531 195.976562 425.476562 C 199.082031 422.480469 198.527344 420.820312 198.527344 420.820312 C 201.632812 419.488281 200.808594 414.921875 194.316406 416.046875 C 191.765625 416.492188 194.871094 403.292969 194.316406 400.078125 C 194.261719 399.765625 194.117188 399.410156 193.902344 399.035156 L 194.644531 394.421875 C 197.972656 391.648438 216.605469 376.121094 217.382812 372.910156 C 218.160156 369.695312 216.71875 366.585938 218.492188 364.8125 C 220.261719 363.042969 223.554688 358.898438 223.554688 358.898438 C 225.773438 360.96875 229.914062 362.152344 227.992188 358.011719 C 229.695312 358.675781 234.425781 358.675781 231.910156 356.382812 C 233.980469 356.382812 236.566406 355.941406 236.496094 354.980469 C 238.199219 354.980469 238.417969 354.613281 238.417969 353.503906 C 240.933594 354.539062 244.777344 354.46875 245.738281 352.765625 C 246.703125 351.0625 242.117188 350.25 242.339844 349.367188 C 244.632812 349.367188 247.738281 349.074219 248.179688 346.851562 C 250.621094 345.886719 250.394531 343.523438 249.363281 343.152344 C 248.332031 342.785156 246.773438 344.261719 246.554688 343.597656 C 246.332031 342.933594 243.894531 341.15625 243.226562 341.601562 C 242.5625 342.046875 242.484375 345.226562 241.226562 344.628906 C 239.972656 344.035156 234.277344 338.421875 232.800781 339.675781 C 231.320312 340.933594 230.433594 341.375 230.878906 342.703125 C 229.175781 342.335938 226.144531 342.855469 226.144531 344.40625 C 226.144531 345.957031 223.855469 349.289062 224.964844 351.058594 C 223.117188 352.835938 218.085938 352.535156 219.269531 355.125 C 220.453125 357.714844 220.527344 358.15625 219.789062 359.714844 C 219.050781 361.265625 214.6875 363.925781 214.6875 366.222656 C 214.6875 368.515625 215.351562 371.988281 212.398438 373.6875 C 209.441406 375.382812 198.867188 382.5625 198.054688 384.039062 C 199.832031 380.414062 204.488281 373.09375 204.855469 371.246094 C 205.226562 369.398438 206.703125 360.894531 209.066406 358.824219 C 211.433594 356.753906 223.261719 348.398438 224.074219 345.8125 C 224.890625 343.222656 227.921875 335.167969 228.21875 333.617188 C 228.511719 332.0625 227.480469 329.625 227.554688 328.886719 C 229.03125 330.066406 231.621094 330.289062 230.808594 328.070312 C 233.324219 329.179688 234.507812 327.550781 233.691406 326.445312 C 237.089844 326.445312 239.460938 325.335938 238.867188 326.964844 C 238.273438 328.589844 240.9375 329.328125 241.457031 327.183594 C 241.976562 325.035156 239.535156 322.894531 239.535156 322.894531 C 241.3125 323.558594 242.421875 322.746094 244.046875 323.859375 C 245.675781 324.96875 249.441406 325.042969 248.335938 322.894531 C 247.296875 320.894531 246.003906 320.695312 245.839844 320.679688 C 247.621094 320.890625 251.058594 319.199219 247.746094 318.976562 C 244.417969 318.757812 240.574219 316.761719 239.835938 317.5 C 242.203125 315.578125 243.382812 313.582031 241.464844 313.289062 C 239.542969 312.996094 237.394531 311 236.507812 312.253906 C 235.617188 313.511719 233.699219 315.433594 232.808594 314.101562 C 231.921875 312.769531 233.179688 308.113281 231.105469 306.855469 C 229.035156 305.597656 228.003906 300.347656 226.746094 301.460938 C 225.488281 302.574219 224.597656 304.714844 225.191406 306.339844 C 223.417969 304.496094 220.679688 300.5625 219.941406 301.3125 C 219.203125 302.054688 218.761719 306.9375 219.722656 308.5625 C 218.835938 309.527344 220.316406 311.371094 219.574219 312.480469 C 218.835938 313.589844 208.929688 313.074219 208.484375 315.289062 C 208.039062 317.507812 211.511719 316.398438 211.8125 317.359375 C 212.113281 318.324219 215.363281 319.136719 211.664062 319.578125 C 207.964844 320.019531 206.117188 321.355469 206.042969 322.09375 C 205.96875 322.832031 202.714844 321.058594 201.457031 321.871094 C 200.199219 322.6875 199.832031 323.054688 197.019531 323.792969 C 194.210938 324.53125 192.808594 329.5625 197.832031 327.191406 C 202.859375 324.828125 202.640625 323.9375 203.746094 325.121094 C 204.855469 326.304688 206.558594 325.273438 205.59375 326.675781 C 204.632812 328.078125 204.5625 330.222656 208.183594 328.519531 C 207.152344 330.441406 211.289062 329.554688 214.324219 327.855469 C 213.066406 330.445312 219.347656 329.632812 219.867188 326.75 C 221.34375 328.671875 223.195312 326.597656 223.785156 328.375 C 224.375 330.152344 225.488281 329.632812 224.378906 331.554688 C 223.273438 333.476562 224.070312 338.164062 222.902344 340.648438 C 219.613281 347.636719 201.648438 352.40625 201.867188 362.164062 C 197.210938 359.167969 194.988281 357.0625 194.988281 357.0625 L 193.546875 356.726562 C 193.546875 356.726562 197.984375 360.722656 198.871094 364.933594 C 199.761719 369.144531 199.207031 371.808594 197.210938 373.917969 C 195.214844 376.023438 192.554688 377.910156 192.21875 380.125 C 191.886719 382.339844 182.871094 384.390625 182.222656 390.1875 C 181.882812 390.105469 181.589844 390.078125 181.355469 390.105469 C 182.132812 388.664062 181.464844 387.003906 180.023438 387.003906 C 178.578125 387.003906 177.246094 387.445312 177.246094 388.777344 C 176.691406 387.003906 177.027344 386.230469 174.917969 386.117188 C 176.578125 382.015625 175.25 378.351562 173.917969 377.800781 C 176.25 376.023438 174.472656 371.589844 168.472656 373.367188 C 165.449219 369.179688 149.574219 345.539062 129.0625 344.285156 C 132.601562 335.707031 137.460938 321.300781 138.757812 317.417969 C 140.027344 318.574219 140.730469 320.160156 141.742188 323.082031 C 141.742188 323.082031 143.488281 319.125 141.988281 316.578125 C 141.988281 316.578125 145.535156 318.863281 148.425781 322.390625 C 149.179688 320.449219 146.417969 314.964844 143.96875 312.703125 C 144.617188 311.78125 147.941406 313.828125 150.800781 315.550781 C 150.800781 315.550781 148.496094 310.703125 146.394531 309.945312 C 147.199219 309.179688 151.6875 306.582031 153.371094 307.144531 C 153.371094 307.144531 147.78125 304.804688 144.28125 306.757812 C 144.28125 306.757812 148.785156 300.125 150.890625 300.023438 C 150.890625 300.023438 143.832031 299.84375 141 303.457031 C 139.453125 299.574219 133.195312 298.785156 130.007812 297.683594 C 130.007812 297.683594 134.285156 299.125 137.078125 305.117188 C 133.976562 302.019531 128.847656 303.222656 126.246094 303.703125 C 126.246094 303.703125 131.691406 305.566406 134.136719 307.984375 C 134.136719 307.984375 124.859375 308.84375 122.707031 313.183594 C 125.429688 311.210938 129.898438 311.09375 133.402344 312.199219 C 132.070312 312.085938 126.285156 317.429688 125.761719 319.457031 C 125.761719 319.457031 131.90625 315.453125 135.253906 315.179688 C 135.253906 315.179688 130.320312 319.101562 130.71875 321.9375 C 132.25 319.863281 134.769531 318.101562 136.253906 317.171875 C 134.453125 322.210938 129.414062 336.113281 125.910156 344.28125 C 125.722656 344.292969 125.539062 344.296875 125.347656 344.3125 C 119.023438 341.761719 114.035156 337.371094 111.039062 339.121094 C 106.828125 338.210938 98.398438 332.996094 94.960938 335.328125 C 92.851562 331.335938 90.964844 330.003906 89.304688 332.886719 C 86.421875 330.78125 80.875 328.5625 82.316406 331.667969 C 77.992188 329.785156 49.488281 325.789062 40.949219 328.339844 C 32.359375 330.890625 0.5 329.121094 0.5 329.121094 L 0.5 538.972656 L 506.558594 538.972656 L 506.558594 374.296875 C 506.558594 374.296875 473.433594 353 469.589844 352.117188 Z M 469.589844 352.113281 " fill-opacity="1" fill-rule="nonzero"/></g><g clip-path="url(#cdc734dc76)"><path fill="#4c8155" d="M 447.261719 193.925781 C 446.484375 197.808594 444.046875 207.121094 444.046875 207.121094 C 444.046875 207.121094 456.136719 197.800781 457.6875 193.144531 C 457.6875 199.578125 458.6875 201.023438 458.6875 201.023438 C 461.460938 198.804688 468.449219 190.597656 470.328125 186.601562 C 472.433594 193.480469 473.214844 197.917969 473.214844 197.917969 C 473.214844 197.917969 484.046875 190.597656 484.070312 184.722656 C 484.527344 192.042969 486.96875 196.253906 486.96875 196.253906 C 486.96875 196.253906 497.503906 188.488281 499.164062 180.730469 C 499.945312 185.277344 501.273438 187.714844 501.273438 187.714844 C 501.273438 187.714844 507.925781 182.617188 508.8125 176.074219 C 511.027344 180.730469 510.808594 191.046875 510.808594 191.046875 C 514.910156 188.386719 521.789062 178.847656 521.453125 173.414062 C 522.785156 182.171875 524.667969 182.617188 524.667969 182.617188 C 527.109375 180.621094 531.101562 171.417969 533.207031 170.859375 C 536.757812 176.292969 539.496094 183.5 539.496094 192.707031 L 539.496094 158.101562 C 518.679688 153.664062 466.777344 165.199219 428.621094 204.679688 C 443.257812 201.132812 447.25 193.917969 447.25 193.917969 Z M 447.261719 193.925781 " fill-opacity="1" fill-rule="nonzero"/></g><g clip-path="url(#ec893d5233)"><path fill="#4c8155" d="M 458.644531 258.953125 C 467.226562 255.925781 478.089844 240.175781 478.089844 240.175781 C 474.542969 252.597656 474.042969 255.089844 474.042969 255.089844 C 474.042969 255.089844 489.957031 238.402344 489.511719 233.351562 C 490.402344 234.957031 492.117188 239.503906 492.117188 239.503906 C 492.117188 239.503906 499.679688 224.199219 503.078125 219.988281 C 504.261719 223.164062 504.855469 238.246094 504.855469 238.246094 C 504.855469 238.246094 514.171875 220.5 514.6875 217.101562 C 515.945312 221.757812 517.714844 225.53125 517.714844 225.53125 L 524.222656 212.152344 L 527.292969 229.824219 C 527.292969 229.824219 533.617188 214.851562 533.355469 211.300781 C 535.984375 213.558594 536.945312 214.296875 536.945312 214.296875 L 539.5 211.929688 L 539.5 192.707031 C 533.765625 193.59375 476.539062 211.78125 458.644531 258.953125 Z M 458.644531 258.953125 " fill-opacity="1" fill-rule="nonzero"/></g><g clip-path="url(#af63652453)"><path fill="#4c8155" d="M 527.113281 254.367188 C 525.398438 252.925781 520.84375 249.378906 517.132812 248.878906 C 513.417969 248.378906 503.046875 247.492188 501.273438 246.273438 C 503.433594 250.265625 518.183594 255.808594 518.183594 255.808594 C 513.914062 254.976562 505.488281 255.476562 505.488281 255.476562 C 510.371094 257.136719 516.523438 261.574219 516.523438 261.574219 C 494.066406 257.582031 474.210938 269.464844 474.210938 269.464844 C 491.179688 265.785156 515.691406 268.226562 515.691406 268.226562 C 507.925781 269.445312 501.714844 273.21875 501.714844 273.21875 C 510.144531 273.109375 517.242188 272.109375 521.015625 278.207031 C 520.515625 281.8125 512.53125 281.8125 511.144531 285.972656 C 507.703125 282.761719 477.425781 273.332031 447.707031 276.65625 C 417.980469 279.984375 368.960938 296.507812 354.097656 318.46875 C 362.527344 315.585938 372.953125 310.484375 372.953125 310.484375 C 372.289062 314.03125 368.074219 318.46875 368.074219 318.46875 C 373.398438 318.46875 382.265625 311.371094 382.265625 311.371094 C 383.15625 314.699219 381.601562 320.019531 381.601562 320.019531 C 385.816406 318.023438 396.242188 305.828125 396.242188 305.828125 C 396.683594 310.929688 395.132812 320.019531 395.132812 320.019531 C 402.898438 315.363281 409.328125 309.375 410.441406 303.164062 C 410.21875 310.703125 410.882812 313.808594 410.882812 313.808594 C 414.65625 312.253906 422.199219 302.050781 422.199219 302.050781 C 423.304688 306.707031 424.636719 320.015625 424.636719 320.015625 C 431.960938 317.132812 443.9375 300.273438 443.9375 300.273438 C 444.15625 303.378906 443.71875 310.699219 443.71875 310.699219 C 446.160156 310.035156 453.253906 299.382812 453.253906 299.382812 C 452.367188 304.484375 446.8125 318.683594 446.8125 318.683594 C 453.917969 318.238281 472.105469 304.265625 474.769531 298.277344 C 474.992188 303.820312 476.765625 310.917969 476.765625 310.917969 C 479.652344 308.921875 486.304688 298.941406 486.304688 298.941406 C 487.855469 302.933594 495.398438 312.914062 495.398438 312.914062 C 498.945312 308.921875 502.273438 299.828125 502.273438 299.828125 C 503.164062 305.375 505.378906 308.476562 505.378906 308.476562 C 507.375 306.925781 511.367188 301.378906 511.367188 301.378906 C 511.8125 305.152344 510.925781 313.140625 510.925781 313.140625 L 504.933594 331.105469 C 504.046875 328.664062 499.074219 316.023438 499.074219 316.023438 C 499.609375 324.453125 500.71875 339.089844 500.71875 339.089844 C 500.367188 334.425781 493.175781 320.015625 493.175781 320.015625 C 493.175781 320.015625 491.398438 338.871094 494.285156 344.636719 C 488.960938 340.644531 480.972656 340.863281 480.972656 340.863281 C 482.308594 345.742188 486.742188 352.394531 490.511719 353.058594 C 481.636719 353.058594 452.800781 355.71875 452.800781 355.71875 C 456.902344 359.492188 477.535156 366.367188 477.535156 366.367188 C 472.988281 366.917969 467.21875 371.800781 467.21875 371.800781 C 470.324219 372.910156 478.199219 370.46875 478.199219 370.46875 C 478.199219 370.46875 479.53125 371.964844 478.253906 372.851562 C 476.976562 373.742188 469.4375 382.117188 469.4375 382.117188 C 472.875 381.507812 476.3125 382.117188 476.3125 382.117188 C 475.371094 383.558594 467.71875 385.390625 467.71875 385.390625 C 468.21875 386.109375 470.324219 388.882812 470.324219 388.882812 C 470.324219 388.882812 414.871094 402.671875 403.339844 427.8125 C 410.660156 435.351562 422.414062 416.054688 422.414062 416.054688 C 422.632812 425.371094 421.96875 433.355469 421.96875 433.355469 C 427.738281 432.023438 434.546875 420.933594 434.164062 411.617188 C 438.824219 419.15625 443.257812 423.148438 443.257812 423.148438 C 445.476562 421.816406 445.699219 404.964844 445.253906 402.078125 C 451.90625 408.066406 455.015625 409.84375 455.015625 409.84375 L 459.453125 399.644531 C 461.894531 402.527344 463.890625 405.851562 463.890625 405.851562 C 464.78125 403.410156 465.441406 398.753906 465.441406 398.753906 C 468.101562 402.96875 469.4375 409.179688 469.4375 409.179688 C 469.4375 409.179688 465.441406 418.71875 464.109375 420.496094 C 462.777344 422.273438 454.128906 426.039062 450.800781 435.359375 C 447.472656 444.675781 410.429688 443.785156 406.882812 450.21875 C 403.332031 456.652344 427.953125 448.003906 431.28125 450.21875 C 429.285156 452.644531 425.738281 453.550781 425.738281 453.550781 C 425.738281 453.550781 435.9375 451.996094 436.382812 453.550781 C 436.824219 455.101562 430.394531 454.65625 431.28125 459.757812 C 432.167969 464.859375 429.503906 464.859375 422.851562 463.75 C 416.199219 462.640625 411.980469 460.71875 405.992188 464.34375 C 400.003906 467.96875 388.246094 483.492188 387.582031 487.261719 C 390.242188 455.101562 372.277344 439.570312 371.167969 426.929688 C 369.835938 437.355469 382.480469 456.652344 382.039062 466.191406 C 381.59375 475.726562 380.042969 482.605469 382.039062 487.261719 C 376.492188 476.171875 361.410156 466.410156 361.410156 466.410156 C 364.296875 473.0625 378.488281 497.019531 378.488281 497.019531 C 373.164062 492.804688 362.300781 493.46875 362.300781 493.46875 C 366.511719 497.683594 367.84375 499.902344 367.84375 499.902344 C 364.070312 499.238281 357.863281 501.234375 357.863281 501.234375 C 357.863281 501.234375 364.960938 503.230469 365.402344 505.890625 C 363.1875 507.222656 356.640625 513.433594 354.976562 518.203125 C 350.875 518.203125 346.105469 519.867188 346.105469 519.867188 L 341.855469 523.339844 C 340.660156 524.316406 339.160156 524.855469 337.613281 524.855469 L 333.199219 524.855469 C 331.660156 524.855469 330.195312 525.464844 329.105469 526.554688 L 316.714844 538.960938 L 539.492188 538.960938 L 539.492188 227.460938 C 539.082031 241.464844 527.074219 248.277344 527.105469 254.367188 Z M 527.113281 254.367188 " fill-opacity="1" fill-rule="nonzero"/></g><g clip-path="url(#c73260f90b)"><path fill="#4c8155" d="M 208.371094 530.519531 C 208.371094 530.519531 212.582031 528.082031 214.578125 527.191406 C 214.578125 527.191406 203.933594 525.195312 197.273438 526.085938 C 197.273438 526.085938 200.605469 521.871094 202.601562 518.761719 C 202.601562 518.761719 195.058594 518.761719 191.953125 522.753906 L 199.050781 499.6875 C 199.050781 499.6875 187.738281 518.097656 186.855469 522.753906 C 186.855469 522.753906 182.640625 518.542969 181.753906 517.875 C 180.863281 517.210938 181.753906 517.875 177.097656 517.210938 C 177.097656 517.210938 179.3125 514.996094 182.640625 513.4375 C 182.640625 513.4375 176.433594 510.777344 171.328125 511.660156 C 171.328125 509.445312 179.09375 504.339844 181.527344 503.011719 C 181.527344 503.011719 173.097656 503.457031 167.773438 504.566406 C 169.769531 502.125 179.972656 481.941406 179.972656 481.941406 C 179.972656 481.941406 163.78125 496.804688 159.789062 503.011719 C 158.011719 499.683594 156.242188 497.46875 152.691406 495.246094 C 149.144531 493.03125 147.589844 486.375 145.152344 481.9375 C 142.710938 477.5 130.511719 475.058594 129.402344 471.734375 C 128.292969 468.40625 131.175781 464.414062 125.40625 463.304688 C 125.40625 463.304688 129.84375 458.425781 137.167969 457.316406 C 137.167969 457.316406 128.074219 450.664062 120.976562 450.664062 C 124.96875 447.117188 134.949219 440.019531 145.152344 438.023438 C 137.167969 436.027344 126.742188 434.917969 114.761719 440.019531 C 120.308594 435.582031 125.632812 429.375 126.742188 423.160156 C 118.089844 421.382812 105 430.703125 99.234375 434.917969 C 94.503906 431.664062 72.394531 433.734375 66.777344 432.554688 C 61.15625 431.371094 48.734375 422.496094 44.003906 419.242188 C 43.535156 418.917969 42.980469 418.582031 42.355469 418.238281 C 44.628906 418.1875 46.4375 417.84375 47.109375 417.28125 C 47.109375 417.28125 39.222656 412.085938 37.46875 405.296875 C 39.101562 409.457031 49.128906 416.835938 55.09375 416.835938 C 57.867188 409.515625 53.984375 403.527344 52.433594 397.871094 C 52.433594 397.871094 60.199219 405.078125 63.964844 410.957031 C 68.292969 406.078125 70.507812 396.207031 69.292969 390.441406 C 69.292969 390.441406 77.832031 399.757812 81.050781 401.3125 C 82.046875 398.207031 80.050781 391.328125 77.722656 388.554688 C 77.722656 388.554688 98.128906 404.191406 104.117188 405.304688 C 104.894531 396.65625 99.234375 387.445312 96.796875 381.566406 C 96.796875 381.566406 105.777344 390.769531 107.332031 391.882812 C 107.332031 391.882812 108.664062 384.230469 107.886719 375.804688 C 111.660156 382.457031 124.855469 397.652344 130.0625 396.320312 C 129.519531 391.527344 124.917969 377.664062 121.808594 371.804688 C 123.789062 375.148438 132.710938 380.253906 135.5 380.683594 C 135.5 380.683594 135.28125 371.699219 135.832031 369.484375 C 136.832031 374.253906 147.148438 382.90625 151.25 384.457031 C 151.25 384.457031 152.910156 376.691406 150.914062 364.160156 C 152.46875 369.59375 165.667969 378.023438 169.546875 378.132812 C 169.546875 378.132812 166.660156 368.929688 168.4375 362.941406 C 170.769531 365.9375 176.976562 369.929688 180.636719 371.035156 C 180.636719 371.035156 181.523438 360.609375 180.414062 356.617188 C 180.414062 356.617188 187.957031 360.390625 192.839844 361.945312 C 192.839844 361.945312 189.066406 354.402344 183.964844 352.183594 C 183.964844 352.183594 185.960938 350.847656 203.707031 348.558594 C 142.484375 333.183594 69.542969 358.703125 62 361.441406 C 61.222656 354.34375 55.980469 340.089844 54.09375 335.542969 C 54.09375 335.542969 60.195312 340.867188 63.296875 341.640625 C 63.515625 341.308594 63.742188 334.433594 63.40625 329.554688 C 63.40625 329.554688 66.738281 335.542969 69.507812 335.652344 C 69.507812 335.652344 71.058594 329.773438 69.949219 324.453125 C 69.949219 324.453125 73.722656 329.335938 77.9375 329.777344 C 77.9375 329.777344 79.488281 321.792969 78.378906 315.804688 C 78.378906 315.804688 84.8125 322.902344 89.695312 322.902344 C 89.695312 322.902344 91.46875 314.25 89.472656 306.710938 C 89.472656 306.710938 97.015625 313.589844 100.5625 315.140625 C 100.5625 315.140625 103.222656 303.605469 100.121094 295.621094 C 100.121094 295.621094 110.320312 305.160156 115.644531 306.265625 C 115.644531 306.265625 116.535156 295.398438 111.871094 289.632812 C 111.871094 289.632812 124.738281 295.839844 130.503906 296.511719 C 130.503906 296.511719 130.949219 290.300781 125.847656 282.089844 C 129.621094 287.191406 142.707031 291.183594 148.027344 290.296875 C 148.027344 290.296875 146.691406 282.753906 137.378906 275.433594 C 141.152344 278.761719 155.792969 276.765625 161.554688 271.660156 C 161.554688 271.660156 152.683594 268.777344 148.46875 267.003906 C 148.46875 267.003906 162.222656 261.902344 168.214844 249.925781 C 105.683594 259.203125 50.078125 318.5 19.914062 358.578125 C 26.855469 348.097656 34.058594 336.960938 31.105469 324.25 C 31.074219 324.097656 31.03125 323.949219 30.992188 323.804688 C 26.011719 347.375 13.179688 349.78125 6.328125 368.320312 C 10.679688 348.769531 16.035156 328.550781 31.957031 317.320312 C 69.175781 291.074219 72.265625 268.625 60.933594 230.292969 C 60.585938 229.019531 60.238281 227.746094 59.882812 226.480469 C 61.988281 258.929688 41.035156 279.140625 24.355469 304.304688 C 6.816406 330.777344 5.691406 356.984375 2.3125 384.042969 C 1.65625 385.089844 1.054688 386.082031 0.5 387.011719 L 0.5 538.972656 L 227.445312 538.972656 C 223.230469 534.328125 214.800781 530.96875 208.371094 530.527344 Z M 208.371094 530.519531 " fill-opacity="1" fill-rule="nonzero"/></g><g clip-path="url(#5a22440a68)"><path fill="#4f4d39" d="M -12.199219 -8.59375 L -12.609375 -8.578125 C -13.171875 -8.53125 -13.785156 -8.390625 -14.457031 -8.15625 C -15.699219 -7.667969 -16.589844 -7.246094 -17.121094 -6.894531 C -18.394531 -6.113281 -19.398438 -5.148438 -20.121094 -3.992188 L -16.863281 -4.039062 C -14.671875 -4.378906 -13.078125 -4.695312 -12.078125 -4.988281 C -11.820312 -5.039062 -11.460938 -5.082031 -11 -5.109375 C -10.175781 -5.148438 -9.402344 -4.953125 -8.683594 -4.523438 C -7.105469 -3.515625 -5.847656 -1.941406 -4.917969 0.203125 C -4.617188 0.832031 -4.492188 1.449219 -4.539062 2.050781 C -4.5625 2.351562 -4.628906 2.648438 -4.738281 2.941406 C -5.089844 3.664062 -5.351562 4.097656 -5.523438 4.230469 C -5.433594 4.722656 -4.988281 5.023438 -4.179688 5.121094 C -3.578125 5.074219 -2.585938 4.6875 -1.210938 3.960938 C 0.0546875 3.175781 1.800781 2 4.027344 0.4375 C 4.984375 -0.132812 5.65625 -0.449219 6.042969 -0.511719 C 7.789062 -0.316406 9.308594 0.0585938 10.597656 0.617188 C 10.96875 0.699219 11.921875 1.214844 13.457031 2.164062 C 14.054688 2.574219 14.625 3.03125 15.167969 3.527344 C 14.921875 2.933594 14.65625 2.371094 14.367188 1.84375 C 13.246094 -0.273438 11.6875 -1.8125 9.695312 -2.769531 C 9.152344 -2.984375 8.589844 -3.132812 8.007812 -3.226562 C 7.613281 -3.320312 6.828125 -3.347656 5.648438 -3.308594 C 4.71875 -3.214844 2.691406 -2.722656 -0.433594 -1.828125 C -0.886719 -1.746094 -1.273438 -1.753906 -1.59375 -1.847656 C -1.835938 -1.867188 -2.347656 -2.171875 -3.121094 -2.769531 C -5.78125 -5.195312 -7.480469 -6.644531 -8.210938 -7.121094 C -9.75 -8.152344 -11.078125 -8.640625 -12.199219 -8.59375 " fill-opacity="1" fill-rule="nonzero"/></g></svg>