<svg xmlns="http://www.w3.org/2000/svg" xmlns:xlink="http://www.w3.org/1999/xlink" width="720" zoomAndPan="magnify" viewBox="0 0 540 540.000001" height="720" preserveAspectRatio="xMidYMid meet" version="1.0"><defs><clipPath id="7e947e777b"><path d="M 168 9 L 499.410156 9 L 499.410156 278 L 168 278 Z M 168 9 " clip-rule="nonzero"/></clipPath><clipPath id="30982b31dd"><path d="M 134.835938 0 L 432 0 L 432 233 L 134.835938 233 Z M 134.835938 0 " clip-rule="nonzero"/></clipPath></defs><path fill="#d3a86a" d="M 280.25 145.972656 C 282.210938 146.824219 284.925781 148.449219 286.902344 149.300781 C 274.460938 180.152344 263.613281 211.558594 254.355469 243.511719 C 245.097656 275.464844 237.480469 307.808594 231.503906 340.535156 C 225.527344 373.257812 221.21875 406.203125 218.578125 439.367188 C 215.941406 472.53125 214.988281 505.742188 215.714844 539 C 198.21875 534.792969 178.410156 531.445312 160.410156 531.417969 C 165.1875 497.960938 171.289062 464.746094 178.71875 431.773438 C 186.144531 398.800781 194.875 366.179688 204.910156 333.902344 C 214.945312 301.628906 226.25 269.804688 238.828125 238.433594 C 251.40625 207.0625 265.210938 176.242188 280.25 145.972656 Z M 280.25 145.972656 " fill-opacity="1" fill-rule="nonzero"/><g clip-path="url(#7e947e777b)"><path fill="#8ea158" d="M 499.394531 137.828125 C 487.277344 135.980469 475.089844 135.019531 462.832031 134.949219 L 461.300781 134.949219 C 453.480469 134.949219 445.644531 135.28125 437.882812 136.011719 L 436.507812 136.144531 C 427.398438 137.03125 418.378906 138.464844 409.441406 140.4375 C 414.144531 143.269531 418.820312 146.023438 423.519531 148.808594 C 418.003906 148.121094 412.445312 147.625 406.847656 147.3125 C 406.332031 147.3125 405.820312 147.242188 405.304688 147.230469 C 398.671875 146.871094 392.003906 146.757812 385.308594 146.894531 L 383.945312 146.894531 C 378.300781 147.039062 372.628906 147.335938 366.996094 147.816406 L 365.707031 147.910156 C 360.921875 148.34375 356.136719 148.867188 351.425781 149.527344 L 349.929688 149.71875 C 340.265625 151.09375 330.710938 152.921875 321.359375 155.207031 C 326.597656 157.171875 331.636719 159.566406 336.476562 162.382812 C 332.886719 162.082031 329.300781 161.902344 325.652344 161.820312 L 324.371094 161.820312 C 308.527344 161.65625 292.867188 163.273438 277.390625 166.664062 C 281.191406 167.316406 284.921875 168.257812 288.574219 169.484375 C 288.898438 169.582031 289.234375 169.703125 289.566406 169.820312 C 293.929688 171.367188 298.125 173.285156 302.148438 175.574219 L 303.105469 176.136719 C 307.328125 178.597656 311.277344 181.433594 314.957031 184.648438 C 315.269531 184.914062 315.582031 185.175781 315.878906 185.453125 C 319.355469 188.570312 322.519531 191.980469 325.375 195.675781 C 325.640625 196.023438 325.902344 196.359375 326.152344 196.71875 C 329.753906 201.53125 332.703125 206.710938 335.003906 212.265625 L 335.625 213.808594 C 337.984375 219.953125 339.527344 226.300781 340.253906 232.847656 C 340.363281 233.707031 340.445312 234.554688 340.503906 235.417969 C 340.8125 239.023438 340.863281 242.632812 340.660156 246.246094 C 340.457031 249.859375 340.003906 253.4375 339.296875 256.988281 C 338.585938 260.535156 337.632812 264.015625 336.433594 267.429688 C 335.234375 270.84375 333.800781 274.160156 332.132812 277.371094 C 330.164062 273.3125 328.171875 269.277344 326.152344 265.265625 C 325.972656 264.910156 325.804688 264.550781 325.628906 264.203125 C 323.449219 259.792969 321.265625 255.382812 319.074219 250.964844 C 318.894531 250.59375 318.714844 250.246094 318.546875 249.886719 C 316.441406 245.628906 314.335938 241.386719 312.242188 237.101562 C 310.890625 242.652344 308.523438 246.671875 307.171875 252.195312 C 306.707031 247.835938 306.019531 243.511719 305.117188 239.21875 C 305.019531 238.777344 304.925781 238.347656 304.816406 237.90625 C 304.039062 234.316406 303.09375 230.835938 302.007812 227.367188 L 301.5625 226.015625 C 299.683594 220.253906 297.402344 214.652344 294.722656 209.214844 C 294.507812 208.796875 294.304688 208.367188 294.089844 208.019531 C 292.292969 204.429688 290.320312 200.9375 288.179688 197.53125 C 285.789062 202.648438 283.851562 207.242188 281.421875 212.359375 C 281.207031 207.851562 280.871094 203.246094 280.347656 198.605469 C 280.261719 197.9375 280.191406 197.265625 280.109375 196.597656 C 279.078125 187.195312 276.828125 178.09375 273.351562 169.292969 C 265.660156 174.03125 258.765625 179.730469 252.660156 186.382812 C 252.21875 186.839844 251.785156 187.304688 251.367188 187.773438 C 248.414062 190.964844 245.613281 194.253906 242.996094 197.542969 C 243.988281 192.339844 245.089844 187.832031 246.082031 182.628906 C 242.574219 184.03125 239.15625 185.582031 235.832031 187.28125 L 234.636719 187.878906 C 229.613281 190.496094 224.804688 193.457031 220.210938 196.765625 L 219.125 197.542969 C 216.398438 199.5625 213.742188 201.679688 211.183594 203.941406 C 210.859375 204.203125 210.558594 204.492188 210.25 204.765625 C 207.191406 207.496094 204.285156 210.375 201.53125 213.414062 C 203.574219 208.484375 203.996094 204.167969 206.039062 199.230469 C 202.101562 201.308594 198.164062 203.363281 194.234375 205.386719 L 193.242188 205.914062 L 180.984375 212.277344 L 180.015625 212.789062 L 168.84375 218.636719 C 169.878906 211.921875 171.828125 205.480469 174.6875 199.316406 C 177.546875 193.152344 181.210938 187.503906 185.671875 182.378906 C 186.1875 181.769531 186.722656 181.183594 187.273438 180.570312 C 191.414062 176.078125 196.054688 172.179688 201.195312 168.875 L 202.511719 168.050781 C 204.519531 166.855469 206.601562 165.660156 208.730469 164.691406 C 211.664062 163.296875 214.6875 162.125 217.796875 161.175781 L 218.992188 160.828125 C 223.179688 159.605469 227.445312 158.78125 231.789062 158.351562 L 232.914062 158.257812 C 237.464844 157.863281 242.015625 157.90625 246.558594 158.375 L 247.589844 158.484375 C 251.867188 158.976562 256.070312 159.847656 260.195312 161.089844 C 260.515625 161.175781 260.828125 161.28125 261.128906 161.378906 C 264.839844 162.554688 268.425781 164.035156 271.890625 165.816406 C 264.335938 148.496094 254.402344 132.667969 242.085938 118.335938 C 246.390625 117.320312 250.375 118.21875 254.550781 120.203125 C 253.507812 117.402344 252.421875 114.628906 251.308594 111.832031 L 250.699219 110.359375 C 249.121094 106.507812 247.433594 102.707031 245.6875 98.960938 C 245.496094 98.519531 245.292969 98.089844 245.101562 97.660156 C 242.582031 92.316406 239.914062 87.089844 237.097656 81.980469 L 236.476562 80.785156 C 232.675781 73.945312 228.632812 67.347656 224.351562 60.992188 L 223.597656 59.867188 C 221.875 57.355469 220.128906 54.867188 218.335938 52.441406 C 222.246094 52.894531 226.277344 53.433594 230.1875 53.875 C 228.070312 50.5625 226.097656 47.121094 224.207031 43.589844 C 224.003906 43.246094 223.8125 42.886719 223.632812 42.527344 C 221.242188 38.054688 219.003906 33.472656 216.78125 28.882812 C 216.613281 28.535156 216.445312 28.1875 216.265625 27.839844 C 213.324219 21.789062 210.40625 15.703125 207.246094 9.832031 C 222.988281 8.980469 238.582031 18.453125 250.003906 33.019531 C 250.375 33.472656 250.722656 33.941406 251.070312 34.40625 C 252.074219 35.722656 253.03125 37.097656 253.949219 38.484375 C 256.246094 41.988281 258.316406 45.621094 260.171875 49.378906 C 260.375 49.796875 260.578125 50.230469 260.792969 50.660156 C 264.125 57.75 266.8125 65.074219 268.851562 72.640625 C 268.972656 73.058594 269.09375 73.488281 269.199219 73.933594 C 270.96875 80.628906 272.332031 87.40625 273.289062 94.261719 C 273.351562 94.691406 273.410156 95.136719 273.46875 95.554688 C 273.734375 97.492188 273.972656 99.417969 274.164062 101.355469 C 274.5 104.464844 274.75 107.585938 274.941406 110.695312 C 274.941406 111.101562 275 111.507812 275.023438 111.890625 C 275.335938 117.285156 275.46875 122.652344 275.480469 128.09375 C 275.480469 128.574219 275.480469 129.039062 275.480469 129.53125 C 275.480469 140.414062 274.84375 151.285156 274.042969 162.105469 C 278.527344 152.804688 285.476562 144.875 293.597656 138.1875 L 294.421875 137.507812 C 299.160156 133.703125 304.15625 130.28125 309.410156 127.234375 L 310.511719 126.589844 C 310.75 126.457031 310.988281 126.335938 311.214844 126.195312 C 316.457031 123.222656 321.84375 120.539062 327.375 118.144531 C 327.78125 117.953125 328.175781 117.785156 328.570312 117.632812 C 333.042969 115.707031 337.609375 114.042969 342.238281 112.476562 L 343.507812 112.070312 C 347.644531 110.742188 351.878906 109.558594 356.066406 108.554688 L 357.453125 108.21875 C 366.714844 106.0625 376.09375 104.679688 385.582031 104.070312 L 387.972656 103.9375 C 394.335938 103.617188 400.695312 103.648438 407.050781 104.035156 C 409.65625 104.1875 412.277344 104.414062 414.871094 104.703125 C 415.960938 104.8125 417.0625 104.941406 418.148438 105.097656 C 425.476562 106.042969 432.714844 107.449219 439.863281 109.316406 C 447.011719 111.1875 454.015625 113.5 460.867188 116.261719 C 467.722656 119.023438 474.371094 122.207031 480.816406 125.816406 C 487.265625 129.425781 493.457031 133.429688 499.394531 137.828125 Z M 499.394531 137.828125 " fill-opacity="1" fill-rule="nonzero"/></g><path fill="#c1965d" d="M 243.332031 255.640625 C 243.246094 255.8125 243.117188 255.929688 242.941406 256 C 242.761719 256.066406 242.585938 256.066406 242.410156 256 L 239.648438 255.019531 C 239.472656 254.9375 239.347656 254.808594 239.277344 254.632812 C 239.210938 254.453125 239.210938 254.273438 239.289062 254.097656 C 239.367188 253.921875 239.496094 253.800781 239.675781 253.726562 C 239.851562 253.65625 240.03125 253.65625 240.210938 253.726562 L 242.972656 254.707031 C 243.148438 254.789062 243.269531 254.921875 243.339844 255.101562 C 243.410156 255.28125 243.40625 255.460938 243.332031 255.640625 Z M 238.546875 271.472656 L 234.957031 270.097656 C 234.78125 270.019531 234.601562 270.015625 234.421875 270.085938 C 234.242188 270.15625 234.113281 270.277344 234.035156 270.457031 C 233.957031 270.632812 233.953125 270.8125 234.023438 270.992188 C 234.09375 271.171875 234.21875 271.300781 234.394531 271.378906 L 237.984375 272.753906 C 238.160156 272.824219 238.339844 272.828125 238.515625 272.757812 C 238.695312 272.6875 238.824219 272.566406 238.90625 272.394531 C 238.980469 272.214844 238.976562 272.03125 238.898438 271.851562 C 238.824219 271.671875 238.691406 271.546875 238.511719 271.472656 Z M 234.585938 283.503906 L 230.390625 281.878906 C 230.214844 281.800781 230.035156 281.796875 229.855469 281.867188 C 229.675781 281.9375 229.546875 282.058594 229.46875 282.238281 C 229.398438 282.414062 229.394531 282.589844 229.464844 282.769531 C 229.535156 282.949219 229.65625 283.078125 229.828125 283.160156 L 233.988281 284.820312 C 234.167969 284.890625 234.347656 284.890625 234.523438 284.820312 C 234.703125 284.75 234.832031 284.625 234.910156 284.449219 C 234.996094 284.269531 235 284.085938 234.929688 283.902344 C 234.859375 283.714844 234.734375 283.585938 234.550781 283.503906 Z M 230.785156 302.566406 C 229.027344 301.890625 227.226562 301.367188 225.378906 301 C 225.1875 300.972656 225.015625 301.011719 224.859375 301.125 C 224.707031 301.238281 224.613281 301.390625 224.582031 301.582031 C 224.554688 301.769531 224.59375 301.945312 224.707031 302.097656 C 224.820312 302.253906 224.972656 302.347656 225.164062 302.375 C 226.890625 302.726562 228.578125 303.21875 230.222656 303.859375 C 230.398438 303.921875 230.570312 303.917969 230.742188 303.84375 C 230.914062 303.773438 231.035156 303.648438 231.113281 303.480469 C 231.1875 303.308594 231.191406 303.132812 231.128906 302.957031 C 231.066406 302.78125 230.949219 302.652344 230.785156 302.566406 Z M 226.957031 317.027344 L 221.597656 315.542969 C 221.40625 315.515625 221.234375 315.558594 221.078125 315.671875 C 220.921875 315.785156 220.828125 315.9375 220.796875 316.128906 C 220.777344 316.320312 220.824219 316.492188 220.9375 316.644531 C 221.054688 316.796875 221.207031 316.886719 221.394531 316.917969 L 226.742188 318.414062 C 226.933594 318.441406 227.105469 318.398438 227.261719 318.285156 C 227.417969 318.171875 227.511719 318.019531 227.542969 317.828125 C 227.566406 317.632812 227.515625 317.457031 227.394531 317.300781 C 227.273438 317.144531 227.117188 317.054688 226.921875 317.027344 Z M 222.328125 335.753906 L 216.683594 333.804688 C 216.507812 333.734375 216.328125 333.730469 216.152344 333.800781 C 215.972656 333.871094 215.84375 333.992188 215.761719 334.164062 C 215.683594 334.339844 215.679688 334.519531 215.75 334.699219 C 215.820312 334.878906 215.945312 335.007812 216.121094 335.085938 L 221.765625 337.046875 C 221.945312 337.117188 222.125 337.117188 222.300781 337.046875 C 222.480469 336.972656 222.609375 336.851562 222.6875 336.675781 C 222.761719 336.496094 222.757812 336.3125 222.683594 336.132812 C 222.605469 335.953125 222.476562 335.828125 222.292969 335.753906 Z M 218.742188 352.84375 L 211.78125 350.929688 C 211.597656 350.921875 211.4375 350.972656 211.296875 351.089844 C 211.15625 351.203125 211.074219 351.347656 211.046875 351.527344 C 211.019531 351.707031 211.054688 351.871094 211.152344 352.023438 C 211.253906 352.175781 211.390625 352.273438 211.566406 352.320312 L 218.527344 354.230469 C 218.71875 354.261719 218.890625 354.21875 219.046875 354.105469 C 219.203125 353.988281 219.296875 353.835938 219.328125 353.644531 C 219.351562 353.441406 219.296875 353.257812 219.164062 353.101562 C 219.03125 352.941406 218.863281 352.855469 218.65625 352.84375 Z M 215.941406 369.492188 C 213.125 368.746094 210.261719 368.261719 207.355469 368.03125 C 206.457031 367.960938 206.253906 369.335938 207.152344 369.410156 C 210.058594 369.636719 212.921875 370.125 215.738281 370.878906 C 215.941406 370.933594 216.132812 370.902344 216.308594 370.785156 C 216.484375 370.671875 216.585938 370.507812 216.617188 370.300781 C 216.648438 370.089844 216.597656 369.90625 216.460938 369.746094 C 216.324219 369.582031 216.152344 369.5 215.941406 369.492188 Z M 212.4375 389.917969 L 203.132812 387.597656 C 202.941406 387.570312 202.769531 387.613281 202.617188 387.726562 C 202.460938 387.839844 202.371094 387.992188 202.34375 388.183594 C 202.316406 388.375 202.363281 388.546875 202.476562 388.703125 C 202.589844 388.859375 202.742188 388.953125 202.929688 388.984375 L 212.234375 391.304688 C 212.414062 391.3125 212.574219 391.257812 212.710938 391.140625 C 212.847656 391.027344 212.929688 390.878906 212.957031 390.703125 C 212.980469 390.523438 212.945312 390.363281 212.847656 390.210938 C 212.746094 390.0625 212.609375 389.964844 212.4375 389.917969 Z M 208.648438 408.335938 C 205.457031 407.539062 202.214844 406.890625 198.921875 406.398438 C 198.742188 406.386719 198.582031 406.441406 198.441406 406.554688 C 198.300781 406.667969 198.21875 406.816406 198.1875 406.996094 C 198.160156 407.171875 198.195312 407.339844 198.296875 407.488281 C 198.394531 407.640625 198.53125 407.738281 198.707031 407.785156 C 201.972656 408.289062 205.226562 408.980469 208.429688 409.722656 C 209.363281 409.9375 209.554688 408.539062 208.695312 408.335938 Z M 203.492188 431.128906 L 193.542969 429.347656 C 192.65625 429.179688 192.453125 430.542969 193.335938 430.734375 L 203.289062 432.515625 C 204.222656 432.683594 204.425781 431.296875 203.539062 431.128906 Z M 200.597656 451.914062 L 190.085938 450.289062 C 189.902344 450.277344 189.742188 450.332031 189.601562 450.445312 C 189.460938 450.558594 189.378906 450.707031 189.351562 450.886719 C 189.324219 451.0625 189.359375 451.230469 189.457031 451.378906 C 189.558594 451.53125 189.695312 451.628906 189.871094 451.675781 L 200.394531 453.300781 C 200.582031 453.328125 200.75 453.285156 200.902344 453.171875 C 201.058594 453.0625 201.148438 452.914062 201.183594 452.730469 C 201.21875 452.542969 201.183594 452.371094 201.078125 452.214844 C 200.972656 452.054688 200.828125 451.957031 200.644531 451.914062 Z M 198.863281 475.199219 L 186.042969 472.734375 C 185.144531 472.570312 184.941406 473.933594 185.828125 474.125 L 198.753906 476.585938 C 199.582031 476.8125 199.785156 475.367188 198.910156 475.199219 Z M 194.867188 497.765625 L 180.816406 495.722656 C 180.636719 495.714844 180.476562 495.769531 180.339844 495.886719 C 180.203125 496 180.121094 496.148438 180.09375 496.324219 C 180.070312 496.5 180.105469 496.664062 180.203125 496.816406 C 180.304688 496.964844 180.4375 497.0625 180.613281 497.109375 L 194.664062 499.152344 C 194.851562 499.179688 195.023438 499.136719 195.175781 499.027344 C 195.328125 498.914062 195.421875 498.765625 195.453125 498.582031 C 195.488281 498.394531 195.453125 498.222656 195.347656 498.066406 C 195.246094 497.90625 195.101562 497.808594 194.917969 497.765625 Z M 192.164062 522.019531 C 187.582031 521.011719 182.949219 520.3125 178.269531 519.925781 C 177.371094 519.855469 177.15625 521.242188 178.054688 521.3125 C 182.757812 521.714844 187.414062 522.425781 192.023438 523.453125 C 192.882812 523.609375 193.085938 522.257812 192.214844 522.019531 Z M 192.164062 522.019531 " fill-opacity="1" fill-rule="nonzero"/><g clip-path="url(#30982b31dd)"><path fill="#6a8037" d="M 430.996094 232.953125 C 425.121094 229.773438 419.035156 226.832031 413.054688 223.863281 L 412.015625 223.351562 C 407.433594 221.101562 402.851562 218.839844 398.390625 216.460938 L 397.339844 215.875 C 393.8125 213.984375 390.378906 212 387.066406 209.894531 C 387.496094 213.808594 388.023438 217.835938 388.453125 221.746094 C 386.0625 219.953125 383.5625 218.160156 381.050781 216.460938 L 379.925781 215.71875 C 373.59375 211.40625 367.011719 207.339844 360.179688 203.523438 L 358.984375 202.886719 C 353.875 200.054688 348.660156 197.386719 343.328125 194.839844 L 342.023438 194.242188 C 338.269531 192.488281 334.472656 190.804688 330.636719 189.195312 L 329.167969 188.585938 C 326.425781 187.460938 323.65625 186.371094 320.867188 185.320312 C 322.828125 189.492188 323.714844 193.476562 322.695312 197.78125 C 308.449219 185.460938 292.707031 175.496094 275.480469 167.882812 C 275.503906 167.925781 275.53125 167.964844 275.5625 168.003906 L 274.832031 167.597656 L 273.503906 167.035156 C 273.328125 167.117188 273.160156 167.226562 272.96875 167.308594 C 272.96875 167.152344 272.96875 166.988281 273.027344 166.832031 L 271.53125 166.199219 L 272.214844 166.199219 C 256.675781 157.816406 240.25 151.898438 222.9375 148.449219 C 225.535156 145.222656 228.917969 143.59375 233.175781 142.648438 C 230.785156 141.179688 228.390625 139.78125 226 138.402344 L 224.707031 137.664062 C 221.3125 135.75 217.890625 133.917969 214.445312 132.171875 L 213.25 131.5625 C 208.308594 129.09375 203.335938 126.785156 198.335938 124.640625 L 197.210938 124.148438 C 190.46875 121.308594 183.691406 118.789062 176.882812 116.589844 L 175.683594 116.195312 C 172.980469 115.335938 170.253906 114.523438 167.539062 113.804688 C 170.671875 111.878906 173.949219 109.953125 177.109375 108.027344 C 173.640625 106.832031 170.207031 105.410156 166.785156 103.902344 L 165.746094 103.449219 C 161.441406 101.535156 157.136719 99.464844 152.851562 97.371094 L 151.871094 96.894531 C 146.226562 94.132812 140.570312 91.355469 134.867188 88.84375 C 145.953125 79.15625 162.875 77.136719 179.667969 81.261719 C 180.195312 81.394531 180.71875 81.527344 181.246094 81.679688 C 182.742188 82.0625 184.234375 82.519531 185.71875 83.019531 C 189.429688 84.269531 193.042969 85.742188 196.566406 87.445312 L 197.761719 88.019531 C 204.300781 91.316406 210.5 95.152344 216.359375 99.535156 L 217.351562 100.289062 C 222.515625 104.199219 227.425781 108.402344 232.089844 112.894531 C 232.386719 113.171875 232.675781 113.457031 232.960938 113.746094 C 234.277344 115.011719 235.554688 116.292969 236.8125 117.605469 C 238.859375 119.699219 240.84375 121.851562 242.792969 124.027344 C 243.054688 124.304688 243.304688 124.589844 243.546875 124.867188 C 246.886719 128.660156 250.113281 132.542969 253.222656 136.515625 L 254.035156 137.578125 C 260.851562 146.34375 267.191406 155.519531 273.3125 164.703125 C 274.765625 152.699219 274.683594 140.710938 273.0625 128.730469 L 272.917969 127.808594 C 272.535156 125.191406 272.066406 122.597656 271.507812 120.023438 C 274.144531 123.265625 276.476562 126.710938 278.503906 130.367188 C 279.453125 123.351562 280.027344 116.300781 280.226562 109.222656 C 280.226562 108.851562 280.226562 108.492188 280.226562 108.125 C 280.3125 104.632812 280.285156 101.152344 280.226562 97.648438 L 280.226562 96.714844 C 280.09375 92.589844 279.820312 88.460938 279.414062 84.371094 C 279.414062 84.039062 279.355469 83.714844 279.316406 83.378906 C 278.816406 78.523438 278.128906 73.707031 277.261719 68.933594 C 277.261719 68.5625 277.128906 68.191406 277.058594 67.832031 C 276.308594 63.796875 275.414062 59.8125 274.378906 55.875 C 277.023438 59.03125 279.59375 62.199219 282.238281 65.355469 C 282.976562 58.726562 283.285156 52.078125 283.15625 45.410156 C 283.15625 45.074219 283.15625 44.738281 283.15625 44.40625 C 283.023438 38.703125 282.597656 33.019531 281.878906 27.363281 C 281.878906 26.992188 281.792969 26.621094 281.746094 26.25 C 280.578125 17.367188 278.726562 8.628906 276.195312 0.0351562 C 280.117188 3.878906 283.765625 7.96875 287.144531 12.296875 C 290.523438 16.625 293.597656 21.15625 296.375 25.894531 C 299.152344 30.632812 301.601562 35.53125 303.726562 40.59375 C 305.855469 45.65625 307.636719 50.835938 309.074219 56.136719 C 309.289062 56.902344 309.492188 57.679688 309.671875 58.527344 C 310.128906 60.382812 310.546875 62.257812 310.867188 64.125 C 311.742188 68.691406 312.339844 73.289062 312.664062 77.925781 L 312.769531 79.636719 C 313.140625 86.5625 312.902344 93.464844 312.050781 100.351562 C 312.050781 100.683594 311.96875 101.03125 311.921875 101.378906 C 311.515625 104.523438 310.964844 107.644531 310.292969 110.765625 C 310.292969 111.078125 310.164062 111.398438 310.089844 111.710938 C 309.3125 115.191406 308.394531 118.636719 307.292969 122.03125 C 307.195312 122.332031 307.113281 122.628906 306.992188 122.941406 C 305.578125 127.109375 303.929688 131.183594 302.054688 135.164062 C 301.96875 135.34375 301.898438 135.523438 301.804688 135.703125 L 301.410156 136.5625 C 299.484375 140.640625 297.257812 144.542969 294.722656 148.269531 L 294.257812 148.917969 C 291.894531 152.421875 289.15625 155.609375 286.046875 158.476562 C 282.9375 161.339844 279.539062 163.808594 275.851562 165.875 C 287.679688 165 299.578125 164.34375 311.492188 164.332031 L 312.925781 164.332031 C 318.332031 164.332031 323.691406 164.511719 329.121094 164.832031 L 330.316406 164.917969 C 333.425781 165.121094 336.546875 165.382812 339.65625 165.730469 C 341.59375 165.933594 343.519531 166.171875 345.457031 166.449219 L 346.75 166.628906 C 353.605469 167.613281 360.382812 168.996094 367.082031 170.777344 L 368.371094 171.136719 C 375.929688 173.199219 383.25 175.910156 390.332031 179.269531 L 391.597656 179.902344 C 395.371094 181.773438 399.011719 183.875 402.519531 186.203125 C 403.90625 187.125 405.28125 188.082031 406.585938 189.097656 C 407.0625 189.445312 407.515625 189.792969 407.984375 190.164062 C 422.480469 201.585938 431.890625 217.214844 430.996094 232.953125 Z M 430.996094 232.953125 " fill-opacity="1" fill-rule="nonzero"/></g></svg>